<mxfile host="app.diagrams.net" modified="2024-07-19T18:02:32.695Z" agent="Mozilla/5.0 (Macintosh; Intel Mac OS X 10_15_7) AppleWebKit/537.36 (KHTML, like Gecko) Chrome/121.0.0.0 Safari/537.36" version="24.7.2" etag="NEOhEpYlyOPJJ8-php-S" type="github">
  <diagram name="Page-1" id="uiq56RH5fzU2PMsldhJy">
    <mxGraphModel>
      <root>
        <mxCell id="0" />
        <mxCell id="1" parent="0" />
      </root>
    </mxGraphModel>
  </diagram>
</mxfile>
